<svg aria-hidden="true" style="width:0;height:0;position:absolute;overflow:hidden" xmlns="http://www.w3.org/2000/svg"><defs><symbol id="icon-arrow-foc" viewBox="0 0 69 32"><path d="M68.081 17.414a2 2 0 0 0 0-2.829L55.353 1.857a2 2 0 1 0-2.828 2.828l11.314 11.314-11.314 11.314a2 2 0 1 0 2.828 2.828l12.728-12.728zM0 18h66.667v-4H0v4z"/></symbol><symbol id="icon-arrow-how" viewBox="0 0 102 32"><path d="M101.414 17.414a2 2 0 0 0 0-2.828L88.686 1.858a2 2 0 1 0-2.828 2.828L97.172 16 85.858 27.314a2 2 0 1 0 2.828 2.828l12.728-12.728zM0 18h100v-4H0v4z"/></symbol><symbol id="icon-arrow-def" viewBox="0 0 82 32"><path d="M81.414 17.414a2 2 0 0 0 0-2.828L68.686 1.858a2 2 0 1 0-2.828 2.828L77.172 16 65.858 27.314a2 2 0 1 0 2.828 2.828l12.728-12.728zM0 18h80v-4H0v4z"/></symbol><symbol id="arrow-default" viewBox="0 0 32 32"><path d="M31.771 16.552a.78.78 0 0 0 0-1.104l-4.967-4.967a.78.78 0 1 0-1.104 1.104L30.115 16 25.7 20.415a.78.78 0 1 0 1.104 1.104l4.967-4.967zM0 16.78h31.22v-1.561H0v1.561z"/></symbol><symbol id="arrow-hover" viewBox="0 0 32 32"><path d="M31.816 16.444a.627.627 0 0 0 0-.887l-3.993-3.993a.627.627 0 1 0-.887.887L30.485 16l-3.549 3.549a.627.627 0 1 0 .887.887l3.993-3.993zM0 16.627h31.373v-1.255H0v1.255z"/></symbol><symbol id="arrow-focus" viewBox="0 0 32 32"><path d="M31.422 16.653a.923.923 0 0 0 0-1.305l-5.874-5.874a.922.922 0 1 0-1.305 1.305l5.222 5.222-5.222 5.222a.923.923 0 0 0 1.305 1.305l5.874-5.874zM0 16.923h30.769v-1.846H0v1.846z"/></symbol><symbol id="menu-close" viewBox="0 0 32 32"><path d="M28.108 1.727 16 13.835 3.892 1.727c-.291-.266-.674-.41-1.069-.402s-.771.169-1.05.449a1.534 1.534 0 0 0-.047 2.119l12.102 12.108L1.723 28.106a1.54 1.54 0 0 0-.475 1.09 1.54 1.54 0 0 0 .448 1.102 1.52 1.52 0 0 0 1.101.45 1.542 1.542 0 0 0 1.091-.474l12.111-12.105 12.108 12.108c.291.266.674.41 1.069.402s.771-.169 1.05-.449a1.536 1.536 0 0 0 .046-2.119L18.164 16.003 30.272 3.892a1.54 1.54 0 0 0 .476-1.09A1.522 1.522 0 0 0 30.3 1.7a1.52 1.52 0 0 0-1.101-.45 1.526 1.526 0 0 0-1.091.474v.003z"/></symbol><symbol id="subscribe-facebook" viewBox="0 0 32 32"><path fill="#f8d24e" style="fill:var(--color1,#f8d24e)" d="M16 32c8.837 0 16-7.163 16-16S24.837 0 16 0 0 7.163 0 16s7.163 16 16 16z"/><path d="M20.446 15.982h-2.61v9.619h-3.955v-9.619H12v-3.38h1.881v-2.187c0-1.564.739-4.014 3.99-4.014l2.929.012v3.281h-2.125c-.349 0-.839.175-.839.921v1.989h2.955l-.346 3.377z"/></symbol><symbol id="subscribe-github" viewBox="0 0 32 32"><path fill="#f8d24e" style="fill:var(--color1,#f8d24e)" d="M32 16c0 8.837-7.163 16-16 16S0 24.837 0 16 7.163 0 16 0s16 7.163 16 16z"/><path d="M16 6.588c-5.169 0-9.412 4.242-9.412 9.412 0 4.411 3.095 8.419 7.206 9.412v-3.114a2.307 2.307 0 0 1-1.197-.03c-.556-.164-1.008-.535-1.344-1.1-.214-.361-.593-.752-.988-.723l-.097-1.099c.855-.073 1.595.521 2.034 1.259.195.328.419.52.708.605.278.082.578.043.926-.08.088-.698.407-.959.648-1.326v-.001c-2.451-.366-3.428-1.666-3.816-2.693-.514-1.363-.238-3.066.671-4.142.018-.021.05-.076.037-.114-.417-1.258.091-2.299.11-2.41.481.142.559-.143 2.089.786l.264.159c.111.066.076.028.186.02A8.031 8.031 0 0 1 16 11.131a8.016 8.016 0 0 1 2.002.285l.086.009c-.007-.001.023-.005.075-.036 1.911-1.157 1.842-.779 2.355-.946.019.111.519 1.169.107 2.411-.056.171 1.657 1.739.708 4.256-.388 1.027-1.365 2.328-3.816 2.693v.001c.314.479.692.734.69 1.722v3.887c4.111-.993 7.206-5 7.206-9.412 0-5.169-4.242-9.412-9.412-9.412z"/></symbol><symbol id="subscribe-telegram" viewBox="0 0 32 32"><path fill="#f8d24e" style="fill:var(--color1,#f8d24e)" d="M32 16c0 8.837-7.163 16-16 16S0 24.837 0 16 7.163 0 16 0s16 7.163 16 16z"/><path d="m12.869 18.375-.318 4.169c.454 0 .651-.182.887-.401l2.13-1.9 4.415 3.017c.81.421 1.38.199 1.598-.695l2.898-12.672.001-.001c.257-1.117-.433-1.554-1.222-1.28L6.226 14.698c-1.162.421-1.145 1.026-.198 1.3l4.354 1.264 10.115-5.907c.476-.294.909-.131.553.163l-8.182 6.857z"/></symbol><symbol id="arrow" viewBox="0 0 32 32"><path d="M10.08 2.579c-.901.243-1.995 1.477-2.189 2.472-.131.677.077 1.296.64 1.899.181.195 2.741 2.301 5.685 4.68 2.947 2.381 5.357 4.347 5.357 4.371s-2.411 1.989-5.357 4.371c-2.944 2.379-5.504 4.485-5.685 4.68-.987 1.056-.888 2.277.285 3.517.696.733 1.296.995 2.032.88a3.19 3.19 0 0 0 1.245-.525c.147-.109 11.811-9.52 13.469-10.864.291-.237.664-.744.885-1.205.181-.379.192-.429.192-.933 0-.496-.013-.56-.173-.888a3.352 3.352 0 0 0-.507-.704c-.256-.267-12.933-10.555-13.867-11.251-.304-.227-.843-.461-1.192-.517-.395-.067-.52-.061-.821.019z"/></symbol><symbol id="burger-menu" viewBox="0 0 32 32"><path fill="none" stroke="#fff" style="stroke:var(--color1,#fff)" stroke-linecap="round" stroke-width="2" d="M6 10h20M6 16h20M6 22h20"/></symbol><symbol id="orange" viewBox="0 0 33 32"><path fill="#fff" style="fill:var(--color1,#fff)" d="M12.569 20.739c1.386-.473 1.894-2.721 1.133-5.02s-2.502-3.781-3.888-3.308c-1.386.473-1.894 2.72-1.133 5.02s2.502 3.781 3.888 3.308z"/><path style="fill:var(--color2,#000)" d="M9.874 12.597c1.261-.43 2.929 1.027 3.643 3.184s.251 4.341-1.01 4.771c-1.261.43-2.929-1.027-3.643-3.184s-.25-4.341 1.01-4.771zm-.123-.373c-1.488.508-2.049 2.867-1.254 5.269s2.646 3.939 4.134 3.431c1.488-.508 2.049-2.867 1.254-5.269s-2.645-3.939-4.134-3.431z"/><path fill="#fff" style="fill:var(--color1,#fff)" d="M21.017 17.857c1.386-.473 1.894-2.721 1.133-5.02s-2.502-3.781-3.888-3.308-1.894 2.721-1.133 5.02c.761 2.3 2.502 3.781 3.888 3.308z"/><path style="fill:var(--color2,#000)" d="M18.322 9.715c1.261-.43 2.929 1.027 3.643 3.184s.251 4.341-1.01 4.771c-1.261.43-2.929-1.027-3.643-3.184s-.25-4.341 1.01-4.771zm-.123-.373c-1.488.508-2.049 2.867-1.254 5.269s2.646 3.939 4.134 3.431c1.488-.508 2.049-2.867 1.254-5.269s-2.645-3.939-4.134-3.431zM11.868 18.626c.778-.265 1.068-1.51.647-2.78s-1.391-2.085-2.169-1.819c-.778.265-1.068 1.51-.647 2.78s1.391 2.085 2.169 1.819z"/><path style="fill:var(--color2,#000)" d="M10.366 14.089c.743-.254 1.679.543 2.088 1.778s.137 2.443-.606 2.697-1.679-.543-2.088-1.778-.136-2.444.606-2.697zm-.041-.125c-.812.277-1.119 1.559-.688 2.863s1.439 2.137 2.251 1.86c.812-.277 1.119-1.559.688-2.863s-1.439-2.137-2.251-1.86zM20.319 15.743c.778-.265 1.068-1.51.647-2.78s-1.391-2.085-2.169-1.819c-.778.265-1.068 1.51-.647 2.78s1.391 2.085 2.169 1.819z"/><path style="fill:var(--color2,#000)" d="M18.817 11.206c.743-.254 1.679.543 2.088 1.778s.137 2.443-.606 2.697-1.679-.544-2.088-1.778-.136-2.444.606-2.697zm-.041-.124c-.812.277-1.119 1.559-.688 2.863s1.439 2.137 2.251 1.86 1.119-1.559.688-2.863c-.432-1.304-1.439-2.137-2.251-1.86z"/><path fill="#fff" style="fill:var(--color1,#fff)" d="M10.548 16.656c.468-.16.682-.79.477-1.408s-.75-.989-1.218-.83c-.468.16-.682.79-.477 1.408s.75.989 1.218.83zM18.911 13.525c.468-.16.682-.79.477-1.408s-.75-.989-1.218-.83c-.468.16-.682.79-.477 1.408s.75.989 1.218.83z"/><path style="fill:var(--color2,#000)" d="M7.543 10.918c.207-.755.574-1.532 1.321-1.86.696-.305 1.476-.114 2.145.174.458.198.806-.506.345-.704-.891-.385-1.912-.598-2.831-.179-.967.441-1.468 1.419-1.739 2.409-.134.49.625.646.759.16zM16.456 7.099c1.943.221 3.943-.05 5.753-.807.459-.191.215-.939-.247-.746-1.68.702-3.54.988-5.349.782-.493-.057-.654.713-.158.77z"/><path fill="none" stroke="#000" style="stroke:var(--color2,#000)" stroke-miterlimit="10" stroke-width=".831" d="M19.259 25.719c-6.323 2.157-12.479.789-13.752-3.055"/><path fill="none" stroke="#000" style="stroke:var(--color2,#000)" stroke-miterlimit="10" stroke-width=".831" d="M28.402 14.853c1.273 3.845-2.821 8.71-9.144 10.867M4.262 23.434l2.406-1.789M27.36 15l2.042-.419"/></symbol><symbol id="green" viewBox="0 0 33 32"><path fill="#fff" style="fill:var(--color1,#fff)" d="M11.929 16.413c1.182.693 3.044-.335 4.159-2.296s1.06-4.112-.122-4.805c-1.182-.693-3.044.335-4.159 2.296s-1.06 4.112.122 4.805z"/><path style="fill:var(--color2,#000)" d="M15.876 9.471c1.076.63 1.101 2.715.056 4.554s-2.837 2.859-3.912 2.229c-1.076-.63-1.101-2.715-.056-4.554s2.838-2.859 3.912-2.229zm.181-.318c-1.269-.743-3.241.315-4.406 2.364s-1.081 4.312.188 5.056c1.269.743 3.241-.315 4.406-2.364s1.082-4.312-.188-5.056z"/><path fill="#fff" style="fill:var(--color1,#fff)" d="M19.131 20.636c1.182.693 3.044-.335 4.159-2.296s1.06-4.112-.122-4.805c-1.182-.693-3.044.335-4.159 2.296s-1.06 4.112.122 4.805z"/><path style="fill:var(--color2,#000)" d="M23.078 13.693c1.076.63 1.101 2.715.056 4.554s-2.837 2.859-3.912 2.229c-1.076-.63-1.101-2.715-.056-4.554s2.838-2.859 3.912-2.229zm.181-.318c-1.269-.743-3.241.315-4.406 2.364s-1.081 4.312.188 5.056c1.269.743 3.241-.315 4.406-2.364s1.082-4.312-.188-5.056zM12.952 14.611c.663.389 1.7-.174 2.316-1.257s.577-2.276-.086-2.665c-.663-.389-1.7.174-2.316 1.257s-.577 2.276.086 2.665z"/><path style="fill:var(--color2,#000)" d="M15.152 10.743c.634.371.662 1.528.064 2.581s-1.599 1.606-2.233 1.235c-.634-.371-.662-1.528-.064-2.581s1.601-1.605 2.233-1.235zm.06-.106c-.692-.406-1.766.168-2.398 1.28s-.584 2.342.108 2.748c.692.406 1.766-.168 2.398-1.28s.584-2.342-.108-2.748zM20.157 18.834c.663.389 1.7-.174 2.316-1.257s.577-2.276-.086-2.665c-.663-.389-1.7.174-2.316 1.257s-.577 2.276.086 2.665z"/><path style="fill:var(--color2,#000)" d="M22.356 14.965c.634.371.662 1.528.064 2.581s-1.599 1.606-2.233 1.235-.662-1.529-.064-2.581c.598-1.052 1.601-1.606 2.233-1.235zm.06-.106c-.692-.406-1.766.168-2.398 1.28s-.584 2.342.108 2.748c.692.406 1.766-.168 2.398-1.279s.584-2.342-.108-2.748z"/><path fill="#fff" style="fill:var(--color1,#fff)" d="M14.372 13.112c.399.234.965-.004 1.265-.53s.219-1.143-.18-1.377c-.399-.234-.965.004-1.265.53s-.219 1.143.18 1.377zM21.576 17.334c.399.234.965-.004 1.265-.53s.219-1.143-.18-1.377c-.399-.234-.965.004-1.265.53s-.219 1.143.18 1.377z"/><path style="fill:var(--color2,#000)" d="M14.965 6.548a4.335 4.335 0 0 1 3.286 1.925c.261.389.89.028.628-.363-.904-1.35-2.313-2.18-3.919-2.296-.463-.034-.458.7.004.734zM22.481 10.954a4.338 4.338 0 0 1 3.286 1.925c.261.389.89.028.628-.363-.904-1.35-2.313-2.18-3.919-2.296-.463-.034-.458.7.004.734z"/><path fill="none" stroke="#000" style="stroke:var(--color2,#000)" stroke-miterlimit="10" stroke-width=".661" d="M12.899 23.272c-5.391-3.16-8.25-8.379-6.386-11.657M26.037 23.058c-1.864 3.278-7.746 3.374-13.137.214M5.215 11.206l2.719.604M25.291 22.409l1.55 1.191"/></symbol><symbol id="pink" viewBox="0 0 32 32"><path fill="#fff" style="fill:var(--color1,#fff)" d="M11.812 15.692c1.095.78 3.001-.06 4.257-1.877s1.386-3.922.291-4.702c-1.095-.78-3.001.06-4.257 1.877s-1.386 3.922-.291 4.702z"/><path style="fill:var(--color2,#000)" d="M16.257 9.26c.996.71.844 2.748-.334 4.452s-3.014 2.543-4.01 1.833c-.996-.71-.844-2.748.334-4.452s3.015-2.542 4.01-1.833zm.204-.295c-1.175-.837-3.192.022-4.504 1.921s-1.423 4.116-.247 4.953c1.175.837 3.192-.022 4.504-1.921s1.424-4.115.247-4.953z"/><path fill="#fff" style="fill:var(--color1,#fff)" d="M18.486 20.447c1.095.78 3.001-.06 4.257-1.877s1.386-3.922.291-4.702c-1.095-.78-3.001.06-4.257 1.877s-1.386 3.922-.291 4.702z"/><path style="fill:var(--color2,#000)" d="M22.931 14.015c.996.71.844 2.748-.334 4.452s-3.014 2.543-4.01 1.833c-.996-.71-.844-2.748.334-4.452s3.015-2.542 4.01-1.833zm.204-.294c-1.175-.837-3.192.023-4.504 1.921s-1.423 4.116-.247 4.953 3.192-.022 4.504-1.921c1.312-1.898 1.424-4.115.247-4.953zM14.032 13.316c.614.438 1.675-.021 2.368-1.024s.758-2.171.143-2.609c-.614-.438-1.675.021-2.368 1.024s-.758 2.171-.143 2.609z"/><path style="fill:var(--color2,#000)" d="M16.509 9.732c.587.418.516 1.551-.158 2.526s-1.699 1.428-2.286 1.009c-.587-.418-.516-1.551.158-2.526s1.7-1.427 2.286-1.009zm.068-.098c-.641-.457-1.738.009-2.45 1.039s-.77 2.236-.129 2.693 1.738-.009 2.45-1.039c.712-1.03.77-2.236.129-2.693zM20.802 18.141c.614.438 1.675-.021 2.368-1.024s.758-2.171.143-2.609c-.614-.438-1.675.021-2.368 1.024s-.758 2.171-.143 2.609z"/><path style="fill:var(--color2,#000)" d="M23.28 14.556c.587.418.516 1.551-.158 2.526s-1.699 1.428-2.286 1.009-.516-1.551.158-2.526c.674-.975 1.7-1.427 2.286-1.009zm.068-.098c-.641-.457-1.738.009-2.45 1.039s-.77 2.236-.129 2.693c.641.457 1.738-.009 2.45-1.039s.77-2.236.129-2.693z"/><path fill="#fff" style="fill:var(--color1,#fff)" d="M13.702 12.861c.287.205.733.063.996-.317s.242-.853-.045-1.058c-.287-.205-.733-.063-.996.317s-.242.853.045 1.058zM20.501 17.853c.287.205.733.063.996-.317s.242-.853-.045-1.058c-.287-.205-.733-.063-.996.317s-.242.853.045 1.058z"/><path style="fill:var(--color2,#000)" d="M15.386 6.322c1.353.05 2.557.705 3.356 1.814.27.374.816-.086.548-.458a4.96 4.96 0 0 0-3.844-2.072c-.455-.016-.518.701-.059.717zM23.254 11.196c1.276.466 2.219 1.47 2.648 2.769.145.439.788.135.645-.3a5.022 5.022 0 0 0-3.055-3.148c-.429-.156-.669.521-.238.679z"/><path fill="none" stroke="#000" style="stroke:var(--color2,#000)" stroke-miterlimit="10" stroke-width=".621" d="M11.914 22.434c-4.995-3.559-7.341-8.906-5.242-11.943M24.759 23.379c-2.1 3.037-7.85 2.614-12.845-.945M5.439 9.978l2.603.829M24.086 22.681l1.412 1.299"/><path fill="none" stroke="#000" style="stroke:var(--color2,#000)" stroke-miterlimit="10" stroke-width=".414" d="M14.343 6.949c-.098.159-.32.563-.321 1.127-.001.492.166.856.256 1.021M14.73 7.292a2.421 2.421 0 0 0-.146.848c-.001.37.076.645.116.768M15.331 7.775a1.185 1.185 0 0 0-.032 1.115M25.816 14.977a2.113 2.113 0 0 1-.935.69 2.063 2.063 0 0 1-1.032.103M25.368 14.725a2.37 2.37 0 0 1-.736.428 2.415 2.415 0 0 1-.751.151M24.715 14.316a1.145 1.145 0 0 1-1.022.409"/><path style="fill:var(--color2,#000);stroke:var(--color2,#000)" stroke="#000" stroke-miterlimit="10" stroke-width=".621" d="M12.069 22.827c.433-.352.321-1.224-.25-1.948s-1.385-1.026-1.818-.674c-.433.352-.321 1.224.25 1.948s1.385 1.026 1.818.674z"/><path style="fill:var(--color2,#000);stroke:var(--color2,#000)" stroke="#000" stroke-miterlimit="10" stroke-width=".621" d="M11.599 23.308c.881.628 1.672 1.027 1.766.892s-.545-.755-1.426-1.383c-.881-.628-1.672-1.027-1.766-.892s.545.755 1.426 1.383z"/><path style="fill:var(--color2,#000);stroke:var(--color2,#000)" stroke="#000" stroke-miterlimit="10" stroke-width=".621" d="M13.038 24.165c.832.384 1.692.279 1.922-.234s-.259-1.239-1.091-1.623c-.832-.384-1.692-.279-1.922.234s.259 1.239 1.091 1.623z"/></symbol><symbol id="arrow-icon" viewBox="0 0 82 32"><path d="M81.414 17.414a2 2 0 0 0 0-2.828L68.686 1.858a2 2 0 1 0-2.828 2.828L77.172 16 65.858 27.314a2 2 0 1 0 2.828 2.828l12.728-12.728zM0 18h80v-4H0v4z"/></symbol><symbol id="Arrow-focus1" viewBox="0 0 69 32"><path fill="#fcfcfc" style="fill:var(--color1,#fcfcfc)" d="M68.08 17.413c.361-.362.585-.861.585-1.413s-.224-1.052-.585-1.413L55.353 1.858a2.001 2.001 0 0 0-2.83 2.83l11.316 11.313-11.315 11.313a2.001 2.001 0 0 0 2.83 2.83l12.728-12.728zM0 18h66.667v-4H0v4z"/></symbol><symbol id="Arrow-hover1" viewBox="0 0 102 32"><path fill="#fcfcfc" style="fill:var(--color1,#fcfcfc)" d="M101.414 17.414c.362-.362.586-.862.586-1.414s-.224-1.052-.586-1.414L88.686 1.858a2 2 0 1 0-2.829 2.827l.001.001L97.172 16 85.858 27.314a2 2 0 0 0 2.829 2.827l-.001.001 12.728-12.728zM0 18h100v-4H0v4z"/></symbol><symbol id="Arrow-default1" viewBox="0 0 82 32"><path fill="#fcfcfc" style="fill:var(--color1,#fcfcfc)" d="M81.414 17.414c.362-.362.586-.862.586-1.414s-.224-1.052-.586-1.414L68.686 1.858a2 2 0 1 0-2.829 2.827l.001.001L77.172 16 65.858 27.314a2 2 0 0 0 2.829 2.827l-.001.001 12.728-12.728zM0 18h80v-4H0v4z"/></symbol><symbol id="arrow_up_circle_icon_183819" viewBox="0 0 32 32"><path d="M16 2.667c7.352 0 13.333 5.981 13.333 13.333S23.352 29.333 16 29.333 2.667 23.352 2.667 16 8.648 2.667 16 2.667zm0 2C9.751 4.667 4.667 9.751 4.667 16S9.751 27.333 16 27.333c6.249 0 11.333-5.084 11.333-11.333S22.249 4.667 16 4.667zm.709 7.902 4.628 4.649a1 1 0 0 1-1.416 1.41L16 14.691l-3.919 3.937a1.001 1.001 0 0 1-1.418-1.41l4.628-4.649c.375-.377 1.041-.377 1.417 0z"/></symbol><symbol id="Arrow-default" viewBox="0 0 82 32"><path d="M81.414 17.414c.362-.362.586-.862.586-1.414s-.224-1.052-.586-1.414L68.686 1.858a2 2 0 1 0-2.829 2.827l.001.001L77.172 16 65.858 27.314a2 2 0 0 0 2.829 2.827l-.001.001 12.728-12.728zM0 18h80v-4H0v4z"/></symbol><symbol id="Arrow-focus" viewBox="0 0 69 32"><path d="M68.08 17.413c.361-.362.585-.861.585-1.413s-.224-1.052-.585-1.413L55.353 1.858a2.001 2.001 0 0 0-2.83 2.83l11.316 11.313-11.315 11.313a2.001 2.001 0 0 0 2.83 2.83l12.728-12.728zM0 18h66.667v-4H0v4z"/></symbol><symbol id="Arrow-hover" viewBox="0 0 102 32"><path d="M101.414 17.414c.362-.362.586-.862.586-1.414s-.224-1.052-.586-1.414L88.686 1.858a2 2 0 1 0-2.829 2.827l.001.001L97.172 16 85.858 27.314a2 2 0 0 0 2.829 2.827l-.001.001 12.728-12.728zM0 18h100v-4H0v4z"/></symbol></defs></svg>