<svg aria-hidden="true" style="width:0;height:0;position:absolute;overflow:hidden" xmlns="http://www.w3.org/2000/svg"><defs><symbol id="arrow-default" viewBox="0 0 32 32"><path d="M31.771 16.552a.78.78 0 0 0 0-1.104l-4.967-4.967a.78.78 0 1 0-1.104 1.104L30.115 16 25.7 20.415a.78.78 0 1 0 1.104 1.104l4.967-4.967zM0 16.78h31.22v-1.561H0v1.561z"/></symbol><symbol id="arrow-hover" viewBox="0 0 32 32"><path d="M31.816 16.444a.627.627 0 0 0 0-.887l-3.993-3.993a.627.627 0 1 0-.887.887L30.485 16l-3.549 3.549a.627.627 0 1 0 .887.887l3.993-3.993zM0 16.627h31.373v-1.255H0v1.255z"/></symbol><symbol id="arrow-focus" viewBox="0 0 32 32"><path d="M31.422 16.653a.923.923 0 0 0 0-1.305l-5.874-5.874a.922.922 0 1 0-1.305 1.305l5.222 5.222-5.222 5.222a.923.923 0 0 0 1.305 1.305l5.874-5.874zM0 16.923h30.769v-1.846H0v1.846z"/></symbol><symbol id="menu-close" viewBox="0 0 32 32"><path d="M28.108 1.727 16 13.835 3.892 1.727c-.291-.266-.674-.41-1.069-.402s-.771.169-1.05.449a1.534 1.534 0 0 0-.047 2.119l12.102 12.108L1.723 28.106a1.54 1.54 0 0 0-.475 1.09 1.54 1.54 0 0 0 .448 1.102 1.52 1.52 0 0 0 1.101.45 1.542 1.542 0 0 0 1.091-.474l12.111-12.105 12.108 12.108c.291.266.674.41 1.069.402s.771-.169 1.05-.449a1.536 1.536 0 0 0 .046-2.119L18.164 16.003 30.272 3.892a1.54 1.54 0 0 0 .476-1.09A1.522 1.522 0 0 0 30.3 1.7a1.52 1.52 0 0 0-1.101-.45 1.526 1.526 0 0 0-1.091.474v.003z"/></symbol><symbol id="subscribe-facebook" viewBox="0 0 32 32"><path fill="#f8d24e" style="fill:var(--color1,#f8d24e)" d="M16 32c8.837 0 16-7.163 16-16S24.837 0 16 0 0 7.163 0 16s7.163 16 16 16z"/><path d="M20.446 15.982h-2.61v9.619h-3.955v-9.619H12v-3.38h1.881v-2.187c0-1.564.739-4.014 3.99-4.014l2.929.012v3.281h-2.125c-.349 0-.839.175-.839.921v1.989h2.955l-.346 3.377z"/></symbol><symbol id="subscribe-github" viewBox="0 0 32 32"><path fill="#f8d24e" style="fill:var(--color1,#f8d24e)" d="M32 16c0 8.837-7.163 16-16 16S0 24.837 0 16 7.163 0 16 0s16 7.163 16 16z"/><path d="M16 6.588c-5.169 0-9.412 4.242-9.412 9.412 0 4.411 3.095 8.419 7.206 9.412v-3.114a2.307 2.307 0 0 1-1.197-.03c-.556-.164-1.008-.535-1.344-1.1-.214-.361-.593-.752-.988-.723l-.097-1.099c.855-.073 1.595.521 2.034 1.259.195.328.419.52.708.605.278.082.578.043.926-.08.088-.698.407-.959.648-1.326v-.001c-2.451-.366-3.428-1.666-3.816-2.693-.514-1.363-.238-3.066.671-4.142.018-.021.05-.076.037-.114-.417-1.258.091-2.299.11-2.41.481.142.559-.143 2.089.786l.264.159c.111.066.076.028.186.02A8.031 8.031 0 0 1 16 11.131a8.016 8.016 0 0 1 2.002.285l.086.009c-.007-.001.023-.005.075-.036 1.911-1.157 1.842-.779 2.355-.946.019.111.519 1.169.107 2.411-.056.171 1.657 1.739.708 4.256-.388 1.027-1.365 2.328-3.816 2.693v.001c.314.479.692.734.69 1.722v3.887c4.111-.993 7.206-5 7.206-9.412 0-5.169-4.242-9.412-9.412-9.412z"/></symbol><symbol id="subscribe-telegram" viewBox="0 0 32 32"><path fill="#f8d24e" style="fill:var(--color1,#f8d24e)" d="M32 16c0 8.837-7.163 16-16 16S0 24.837 0 16 7.163 0 16 0s16 7.163 16 16z"/><path d="m12.869 18.375-.318 4.169c.454 0 .651-.182.887-.401l2.13-1.9 4.415 3.017c.81.421 1.38.199 1.598-.695l2.898-12.672.001-.001c.257-1.117-.433-1.554-1.222-1.28L6.226 14.698c-1.162.421-1.145 1.026-.198 1.3l4.354 1.264 10.115-5.907c.476-.294.909-.131.553.163l-8.182 6.857z"/></symbol><symbol id="arrow" viewBox="0 0 32 32"><path d="M10.08 2.579c-.901.243-1.995 1.477-2.189 2.472-.131.677.077 1.296.64 1.899.181.195 2.741 2.301 5.685 4.68 2.947 2.381 5.357 4.347 5.357 4.371s-2.411 1.989-5.357 4.371c-2.944 2.379-5.504 4.485-5.685 4.68-.987 1.056-.888 2.277.285 3.517.696.733 1.296.995 2.032.88a3.19 3.19 0 0 0 1.245-.525c.147-.109 11.811-9.52 13.469-10.864.291-.237.664-.744.885-1.205.181-.379.192-.429.192-.933 0-.496-.013-.56-.173-.888a3.352 3.352 0 0 0-.507-.704c-.256-.267-12.933-10.555-13.867-11.251-.304-.227-.843-.461-1.192-.517-.395-.067-.52-.061-.821.019z"/></symbol></defs></svg>