<svg aria-hidden="true" style="position: absolute; width: 0; height: 0; overflow: hidden;" version="1.1" xmlns="http://www.w3.org/2000/svg" xmlns:xlink="http://www.w3.org/1999/xlink">
<defs>
<symbol id="Arrow-focus" viewBox="0 0 69 32">
<title>Arrow-focus</title>
<path fill="#fcfcfc" style="fill: var(--color1, #fcfcfc)" d="M68.080 17.413c0.361-0.362 0.585-0.861 0.585-1.413s-0.224-1.052-0.585-1.413l-12.727-12.729c-0.362-0.362-0.862-0.586-1.415-0.586-1.105 0-2.001 0.896-2.001 2.001 0 0.552 0.224 1.053 0.586 1.415l11.316 11.313-11.315 11.313c-0.362 0.362-0.586 0.862-0.586 1.415 0 1.105 0.896 2.001 2.001 2.001 0.552 0 1.053-0.224 1.415-0.586l12.728-12.728zM0 18h66.667v-4h-66.667v4z"></path>
</symbol>
<symbol id="Arrow-hover" viewBox="0 0 102 32">
<title>Arrow-hover</title>
<path fill="#fcfcfc" style="fill: var(--color1, #fcfcfc)" d="M101.414 17.414c0.362-0.362 0.586-0.862 0.586-1.414s-0.224-1.052-0.586-1.414l-12.728-12.728c-0.364-0.377-0.874-0.611-1.439-0.611-1.105 0-2 0.895-2 2 0 0.565 0.234 1.074 0.61 1.438l0.001 0.001 11.314 11.314-11.314 11.314c-0.347 0.359-0.561 0.849-0.561 1.389 0 1.105 0.895 2 2 2 0.54 0 1.030-0.214 1.39-0.562l-0.001 0.001 12.728-12.728zM0 18h100v-4h-100v4z"></path>
</symbol>
<symbol id="Arrow-default" viewBox="0 0 82 32">
<title>Arrow-default</title>
<path fill="#fcfcfc" style="fill: var(--color1, #fcfcfc)" d="M81.414 17.414c0.362-0.362 0.586-0.862 0.586-1.414s-0.224-1.052-0.586-1.414l-12.728-12.728c-0.364-0.377-0.874-0.611-1.439-0.611-1.105 0-2 0.895-2 2 0 0.565 0.234 1.074 0.61 1.438l0.001 0.001 11.314 11.314-11.314 11.314c-0.347 0.359-0.561 0.849-0.561 1.389 0 1.105 0.895 2 2 2 0.54 0 1.030-0.214 1.39-0.562l-0.001 0.001 12.728-12.728zM0 18h80v-4h-80v4z"></path>
</symbol>
</defs>
</svg>
