<svg aria-hidden="true" style="position: absolute; width: 0; height: 0; overflow: hidden;" version="1.1" xmlns="http://www.w3.org/2000/svg" xmlns:xlink="http://www.w3.org/1999/xlink">
<defs>

<symbol id="arrow-default" viewBox="0 0 32 32">
<path d="M31.771 16.552c0.305-0.305 0.305-0.799 0-1.104l-4.967-4.967c-0.305-0.305-0.799-0.305-1.104 0s-0.305 0.799 0 1.104l4.415 4.415-4.415 4.415c-0.305 0.305-0.305 0.799 0 1.104s0.799 0.305 1.104 0l4.967-4.967zM0 16.78h31.22v-1.561h-31.22v1.561z"></path>
</symbol>
<symbol id="arrow-hover" viewBox="0 0 32 32">
<path d="M31.816 16.444c0.245-0.245 0.245-0.642 0-0.887l-3.993-3.993c-0.245-0.245-0.642-0.245-0.887 0s-0.245 0.642 0 0.887l3.549 3.549-3.549 3.549c-0.245 0.245-0.245 0.642 0 0.887s0.642 0.245 0.887 0l3.993-3.993zM0 16.627h31.373v-1.255h-31.373v1.255z"></path>
</symbol>
<symbol id="arrow-focus" viewBox="0 0 32 32">
<path d="M31.422 16.653c0.36-0.36 0.36-0.945 0-1.305l-5.874-5.874c-0.36-0.361-0.945-0.361-1.305 0s-0.36 0.945 0 1.305l5.222 5.222-5.222 5.222c-0.36 0.36-0.36 0.945 0 1.305s0.945 0.36 1.305 0l5.874-5.874zM0 16.923h30.769v-1.846h-30.769v1.846z"></path>
</symbol>
<symbol id="menu-close" viewBox="0 0 32 32">
<path d="M28.108 1.727l-12.108 12.108-12.108-12.108c-0.291-0.266-0.674-0.41-1.069-0.402s-0.771 0.169-1.050 0.449c-0.279 0.279-0.44 0.655-0.449 1.050s0.135 0.777 0.402 1.069l12.102 12.108-12.105 12.105c-0.148 0.141-0.266 0.31-0.348 0.497s-0.125 0.389-0.127 0.593 0.036 0.407 0.113 0.596c0.077 0.189 0.191 0.361 0.335 0.506s0.316 0.259 0.505 0.336 0.392 0.116 0.596 0.114c0.204-0.002 0.406-0.045 0.593-0.127s0.357-0.199 0.498-0.347l12.111-12.105 12.108 12.108c0.291 0.266 0.674 0.41 1.069 0.402s0.771-0.169 1.050-0.449c0.279-0.279 0.44-0.655 0.448-1.050s-0.135-0.777-0.402-1.069l-12.108-12.108 12.108-12.111c0.148-0.141 0.266-0.31 0.348-0.497s0.125-0.389 0.128-0.593c0.003-0.204-0.036-0.407-0.113-0.596s-0.191-0.361-0.335-0.506c-0.144-0.145-0.316-0.259-0.505-0.336s-0.392-0.116-0.596-0.114-0.406 0.045-0.593 0.127c-0.187 0.081-0.357 0.199-0.498 0.347v0.003z"></path>
</symbol>
<symbol id="subscribe-facebook" viewBox="0 0 32 32">
<path fill="#f8d24e" style="fill: var(--color1, #f8d24e)" d="M16 32c8.837 0 16-7.163 16-16s-7.163-16-16-16c-8.837 0-16 7.163-16 16s7.163 16 16 16z"></path>
<path d="M20.446 15.982h-2.61v9.619h-3.955v-9.619h-1.881v-3.38h1.881v-2.187c0-1.564 0.739-4.014 3.99-4.014l2.929 0.012v3.281h-2.125c-0.349 0-0.839 0.175-0.839 0.921v1.989h2.955l-0.346 3.377z"></path>
</symbol>


<symbol id="subscribe-github" viewBox="0 0 32 32">
<path fill="#f8d24e" style="fill: var(--color1, #f8d24e)" d="M32 16c0 8.837-7.163 16-16 16s-16-7.163-16-16c0-8.837 7.163-16 16-16s16 7.163 16 16z"></path>
<path d="M16 6.588c-5.169 0-9.412 4.242-9.412 9.412 0 4.411 3.095 8.419 7.206 9.412v-3.114c-0.407 0.089-0.782 0.092-1.197-0.030-0.556-0.164-1.008-0.535-1.344-1.1-0.214-0.361-0.593-0.752-0.988-0.723l-0.097-1.099c0.855-0.073 1.595 0.521 2.034 1.259 0.195 0.328 0.419 0.52 0.708 0.605 0.278 0.082 0.578 0.043 0.926-0.080 0.088-0.698 0.407-0.959 0.648-1.326v-0.001c-2.451-0.366-3.428-1.666-3.816-2.693-0.514-1.363-0.238-3.066 0.671-4.142 0.018-0.021 0.050-0.076 0.037-0.114-0.417-1.258 0.091-2.299 0.11-2.41 0.481 0.142 0.559-0.143 2.089 0.786l0.264 0.159c0.111 0.066 0.076 0.028 0.186 0.020 0.639-0.173 1.312-0.269 1.975-0.278 0.668 0.009 1.337 0.104 2.002 0.285l0.086 0.009c-0.007-0.001 0.023-0.005 0.075-0.036 1.911-1.157 1.842-0.779 2.355-0.946 0.019 0.111 0.519 1.169 0.107 2.411-0.056 0.171 1.657 1.739 0.708 4.256-0.388 1.027-1.365 2.328-3.816 2.693v0.001c0.314 0.479 0.692 0.734 0.69 1.722v3.887c4.111-0.993 7.206-5 7.206-9.412 0-5.169-4.242-9.412-9.412-9.412v0z"></path>
</symbol>

<symbol id="subscribe-telegram" viewBox="0 0 32 32">
<path fill="#f8d24e" style="fill: var(--color1, #f8d24e)" d="M32 16c0 8.837-7.163 16-16 16s-16-7.163-16-16c0-8.837 7.163-16 16-16s16 7.163 16 16z"></path>
<path d="M12.869 18.375l-0.318 4.169c0.454 0 0.651-0.182 0.887-0.401l2.13-1.9 4.415 3.017c0.81 0.421 1.38 0.199 1.598-0.695l2.898-12.672 0.001-0.001c0.257-1.117-0.433-1.554-1.222-1.28l-17.032 6.086c-1.162 0.421-1.145 1.026-0.198 1.3l4.354 1.264 10.115-5.907c0.476-0.294 0.909-0.131 0.553 0.163l-8.182 6.857z"></path>
</symbol>

<symbol id="arrow" viewBox="0 0 32 32">
<path d="M10.08 2.579c-.901.243-1.995 1.477-2.189 2.472-.131.677.077 1.296.64 1.899.181.195 2.741 2.301 5.685 4.68 2.947 2.381 5.357 4.347 5.357 4.371s-2.411 1.989-5.357 4.371c-2.944 2.379-5.504 4.485-5.685 4.68-.987 1.056-.888 2.277.285 3.517.696.733 1.296.995 2.032.88a3.19 3.19 0 0 0 1.245-.525c.147-.109 11.811-9.52 13.469-10.864.291-.237.664-.744.885-1.205.181-.379.192-.429.192-.933 0-.496-.013-.56-.173-.888a3.352 3.352 0 0 0-.507-.704c-.256-.267-12.933-10.555-13.867-11.251-.304-.227-.843-.461-1.192-.517-.395-.067-.52-.061-.821.019z"/>
</symbol>

<symbol id="burger-menu" viewBox="0 0 32 32">
<path fill="none" stroke="#fff" style="stroke: var(--color1, #fff)" stroke-linejoin="miter" stroke-linecap="round" stroke-miterlimit="4" stroke-width="2" d="M6 10h20"></path>
<path fill="none" stroke="#fff" style="stroke: var(--color1, #fff)" stroke-linejoin="miter" stroke-linecap="round" stroke-miterlimit="4" stroke-width="2" d="M6 16h20"></path>
<path fill="none" stroke="#fff" style="stroke: var(--color1, #fff)" stroke-linejoin="miter" stroke-linecap="round" stroke-miterlimit="4" stroke-width="2" d="M6 22h20"></path>
</symbol>

</defs>
</svg>

