<svg aria-hidden="true" style="position: absolute; width: 0; height: 0; overflow: hidden;" version="1.1" xmlns="http://www.w3.org/2000/svg" xmlns:xlink="http://www.w3.org/1999/xlink">
<defs>

<symbol id="icon-arrow-foc" viewBox="0 0 69 32">
<path d="M68.081 17.414c0.781-0.781 0.781-2.047 0-2.829l-12.728-12.728c-0.781-0.781-2.047-0.781-2.828 0s-0.781 2.047 0 2.828l11.314 11.314-11.314 11.314c-0.781 0.781-0.781 2.047 0 2.828s2.047 0.781 2.828 0l12.728-12.728zM0 18h66.667v-4h-66.667v4z"></path>
</symbol>
<symbol id="icon-arrow-how" viewBox="0 0 102 32">
<path d="M101.414 17.414c0.781-0.781 0.781-2.047 0-2.828l-12.728-12.728c-0.781-0.781-2.047-0.781-2.828 0s-0.781 2.047 0 2.828l11.314 11.314-11.314 11.314c-0.781 0.781-0.781 2.047 0 2.828s2.047 0.781 2.828 0l12.728-12.728zM0 18h100v-4h-100v4z"></path>
</symbol>
<symbol id="icon-arrow-def" viewBox="0 0 82 32">
<path d="M81.414 17.414c0.781-0.781 0.781-2.047 0-2.828l-12.728-12.728c-0.781-0.781-2.047-0.781-2.828 0s-0.781 2.047 0 2.828l11.314 11.314-11.314 11.314c-0.781 0.781-0.781 2.047 0 2.828s2.047 0.781 2.828 0l12.728-12.728zM0 18h80v-4h-80v4z"></path>
</symbol>

<symbol id="arrow-default" viewBox="0 0 32 32">
<path d="M31.771 16.552c0.305-0.305 0.305-0.799 0-1.104l-4.967-4.967c-0.305-0.305-0.799-0.305-1.104 0s-0.305 0.799 0 1.104l4.415 4.415-4.415 4.415c-0.305 0.305-0.305 0.799 0 1.104s0.799 0.305 1.104 0l4.967-4.967zM0 16.78h31.22v-1.561h-31.22v1.561z"></path>
</symbol>
<symbol id="arrow-hover" viewBox="0 0 32 32">
<path d="M31.816 16.444c0.245-0.245 0.245-0.642 0-0.887l-3.993-3.993c-0.245-0.245-0.642-0.245-0.887 0s-0.245 0.642 0 0.887l3.549 3.549-3.549 3.549c-0.245 0.245-0.245 0.642 0 0.887s0.642 0.245 0.887 0l3.993-3.993zM0 16.627h31.373v-1.255h-31.373v1.255z"></path>
</symbol>
<symbol id="arrow-focus" viewBox="0 0 32 32">
<path d="M31.422 16.653c0.36-0.36 0.36-0.945 0-1.305l-5.874-5.874c-0.36-0.361-0.945-0.361-1.305 0s-0.36 0.945 0 1.305l5.222 5.222-5.222 5.222c-0.36 0.36-0.36 0.945 0 1.305s0.945 0.36 1.305 0l5.874-5.874zM0 16.923h30.769v-1.846h-30.769v1.846z"></path>
</symbol>
<symbol id="menu-close" viewBox="0 0 32 32">
<path d="M28.108 1.727l-12.108 12.108-12.108-12.108c-0.291-0.266-0.674-0.41-1.069-0.402s-0.771 0.169-1.050 0.449c-0.279 0.279-0.44 0.655-0.449 1.050s0.135 0.777 0.402 1.069l12.102 12.108-12.105 12.105c-0.148 0.141-0.266 0.31-0.348 0.497s-0.125 0.389-0.127 0.593 0.036 0.407 0.113 0.596c0.077 0.189 0.191 0.361 0.335 0.506s0.316 0.259 0.505 0.336 0.392 0.116 0.596 0.114c0.204-0.002 0.406-0.045 0.593-0.127s0.357-0.199 0.498-0.347l12.111-12.105 12.108 12.108c0.291 0.266 0.674 0.41 1.069 0.402s0.771-0.169 1.050-0.449c0.279-0.279 0.44-0.655 0.448-1.050s-0.135-0.777-0.402-1.069l-12.108-12.108 12.108-12.111c0.148-0.141 0.266-0.31 0.348-0.497s0.125-0.389 0.128-0.593c0.003-0.204-0.036-0.407-0.113-0.596s-0.191-0.361-0.335-0.506c-0.144-0.145-0.316-0.259-0.505-0.336s-0.392-0.116-0.596-0.114-0.406 0.045-0.593 0.127c-0.187 0.081-0.357 0.199-0.498 0.347v0.003z"></path>
</symbol>
<symbol id="subscribe-facebook" viewBox="0 0 32 32">
<path fill="#f8d24e" style="fill: var(--color1, #f8d24e)" d="M16 32c8.837 0 16-7.163 16-16s-7.163-16-16-16c-8.837 0-16 7.163-16 16s7.163 16 16 16z"></path>
<path d="M20.446 15.982h-2.61v9.619h-3.955v-9.619h-1.881v-3.38h1.881v-2.187c0-1.564 0.739-4.014 3.99-4.014l2.929 0.012v3.281h-2.125c-0.349 0-0.839 0.175-0.839 0.921v1.989h2.955l-0.346 3.377z"></path>
</symbol>


<symbol id="subscribe-github" viewBox="0 0 32 32">
<path fill="#f8d24e" style="fill: var(--color1, #f8d24e)" d="M32 16c0 8.837-7.163 16-16 16s-16-7.163-16-16c0-8.837 7.163-16 16-16s16 7.163 16 16z"></path>
<path d="M16 6.588c-5.169 0-9.412 4.242-9.412 9.412 0 4.411 3.095 8.419 7.206 9.412v-3.114c-0.407 0.089-0.782 0.092-1.197-0.030-0.556-0.164-1.008-0.535-1.344-1.1-0.214-0.361-0.593-0.752-0.988-0.723l-0.097-1.099c0.855-0.073 1.595 0.521 2.034 1.259 0.195 0.328 0.419 0.52 0.708 0.605 0.278 0.082 0.578 0.043 0.926-0.080 0.088-0.698 0.407-0.959 0.648-1.326v-0.001c-2.451-0.366-3.428-1.666-3.816-2.693-0.514-1.363-0.238-3.066 0.671-4.142 0.018-0.021 0.050-0.076 0.037-0.114-0.417-1.258 0.091-2.299 0.11-2.41 0.481 0.142 0.559-0.143 2.089 0.786l0.264 0.159c0.111 0.066 0.076 0.028 0.186 0.020 0.639-0.173 1.312-0.269 1.975-0.278 0.668 0.009 1.337 0.104 2.002 0.285l0.086 0.009c-0.007-0.001 0.023-0.005 0.075-0.036 1.911-1.157 1.842-0.779 2.355-0.946 0.019 0.111 0.519 1.169 0.107 2.411-0.056 0.171 1.657 1.739 0.708 4.256-0.388 1.027-1.365 2.328-3.816 2.693v0.001c0.314 0.479 0.692 0.734 0.69 1.722v3.887c4.111-0.993 7.206-5 7.206-9.412 0-5.169-4.242-9.412-9.412-9.412v0z"></path>
</symbol>

<symbol id="subscribe-telegram" viewBox="0 0 32 32">
<path fill="#f8d24e" style="fill: var(--color1, #f8d24e)" d="M32 16c0 8.837-7.163 16-16 16s-16-7.163-16-16c0-8.837 7.163-16 16-16s16 7.163 16 16z"></path>
<path d="M12.869 18.375l-0.318 4.169c0.454 0 0.651-0.182 0.887-0.401l2.13-1.9 4.415 3.017c0.81 0.421 1.38 0.199 1.598-0.695l2.898-12.672 0.001-0.001c0.257-1.117-0.433-1.554-1.222-1.28l-17.032 6.086c-1.162 0.421-1.145 1.026-0.198 1.3l4.354 1.264 10.115-5.907c0.476-0.294 0.909-0.131 0.553 0.163l-8.182 6.857z"></path>
</symbol>

<symbol id="arrow" viewBox="0 0 32 32">
<path d="M10.08 2.579c-.901.243-1.995 1.477-2.189 2.472-.131.677.077 1.296.64 1.899.181.195 2.741 2.301 5.685 4.68 2.947 2.381 5.357 4.347 5.357 4.371s-2.411 1.989-5.357 4.371c-2.944 2.379-5.504 4.485-5.685 4.68-.987 1.056-.888 2.277.285 3.517.696.733 1.296.995 2.032.88a3.19 3.19 0 0 0 1.245-.525c.147-.109 11.811-9.52 13.469-10.864.291-.237.664-.744.885-1.205.181-.379.192-.429.192-.933 0-.496-.013-.56-.173-.888a3.352 3.352 0 0 0-.507-.704c-.256-.267-12.933-10.555-13.867-11.251-.304-.227-.843-.461-1.192-.517-.395-.067-.52-.061-.821.019z"/>
</symbol>

<symbol id="burger-menu" viewBox="0 0 32 32">
<path fill="none" stroke="#fff" style="stroke: var(--color1, #fff)" stroke-linejoin="miter" stroke-linecap="round" stroke-miterlimit="4" stroke-width="2" d="M6 10h20"></path>
<path fill="none" stroke="#fff" style="stroke: var(--color1, #fff)" stroke-linejoin="miter" stroke-linecap="round" stroke-miterlimit="4" stroke-width="2" d="M6 16h20"></path>
<path fill="none" stroke="#fff" style="stroke: var(--color1, #fff)" stroke-linejoin="miter" stroke-linecap="round" stroke-miterlimit="4" stroke-width="2" d="M6 22h20"></path>
</symbol>

<symbol id="orange" viewBox="0 0 33 32">
            <path fill="#fff" style="fill: var(--color1, #fff)"
                d="M12.569 20.739c1.386-0.473 1.894-2.721 1.133-5.020s-2.502-3.781-3.888-3.308c-1.386 0.473-1.894 2.72-1.133 5.020s2.502 3.781 3.888 3.308z">
            </path>
            <path fill="#000" style="fill: var(--color2, #000)"
                d="M9.874 12.597c1.261-0.43 2.929 1.027 3.643 3.184s0.251 4.341-1.010 4.771c-1.261 0.43-2.929-1.027-3.643-3.184s-0.25-4.341 1.010-4.771zM9.751 12.224c-1.488 0.508-2.049 2.867-1.254 5.269s2.646 3.939 4.134 3.431c1.488-0.508 2.049-2.867 1.254-5.269s-2.645-3.939-4.134-3.431z">
            </path>
            <path fill="#fff" style="fill: var(--color1, #fff)"
                d="M21.017 17.857c1.386-0.473 1.894-2.721 1.133-5.020s-2.502-3.781-3.888-3.308-1.894 2.721-1.133 5.020c0.761 2.3 2.502 3.781 3.888 3.308z">
            </path>
            <path fill="#000" style="fill: var(--color2, #000)"
                d="M18.322 9.715c1.261-0.43 2.929 1.027 3.643 3.184s0.251 4.341-1.010 4.771c-1.261 0.43-2.929-1.027-3.643-3.184s-0.25-4.341 1.010-4.771zM18.199 9.342c-1.488 0.508-2.049 2.867-1.254 5.269s2.646 3.939 4.134 3.431c1.488-0.508 2.049-2.867 1.254-5.269s-2.645-3.939-4.134-3.431z">
            </path>
            <path fill="#000" style="fill: var(--color2, #000)"
                d="M11.868 18.626c0.778-0.265 1.068-1.51 0.647-2.78s-1.391-2.085-2.169-1.819c-0.778 0.265-1.068 1.51-0.647 2.78s1.391 2.085 2.169 1.819z">
            </path>
            <path fill="#000" style="fill: var(--color2, #000)"
                d="M10.366 14.089c0.743-0.254 1.679 0.543 2.088 1.778s0.137 2.443-0.606 2.697c-0.743 0.254-1.679-0.543-2.088-1.778s-0.136-2.444 0.606-2.697zM10.325 13.964c-0.812 0.277-1.119 1.559-0.688 2.863s1.439 2.137 2.251 1.86c0.812-0.277 1.119-1.559 0.688-2.863s-1.439-2.137-2.251-1.86z">
            </path>
            <path fill="#000" style="fill: var(--color2, #000)"
                d="M20.319 15.743c0.778-0.265 1.068-1.51 0.647-2.78s-1.391-2.085-2.169-1.819c-0.778 0.265-1.068 1.51-0.647 2.78s1.391 2.085 2.169 1.819z">
            </path>
            <path fill="#000" style="fill: var(--color2, #000)"
                d="M18.817 11.206c0.743-0.254 1.679 0.543 2.088 1.778s0.137 2.443-0.606 2.697c-0.743 0.254-1.679-0.544-2.088-1.778s-0.136-2.444 0.606-2.697zM18.776 11.082c-0.812 0.277-1.119 1.559-0.688 2.863s1.439 2.137 2.251 1.86 1.119-1.559 0.688-2.863c-0.432-1.304-1.439-2.137-2.251-1.86z">
            </path>
            <path fill="#fff" style="fill: var(--color1, #fff)"
                d="M10.548 16.656c0.468-0.16 0.682-0.79 0.477-1.408s-0.75-0.989-1.218-0.83c-0.468 0.16-0.682 0.79-0.477 1.408s0.75 0.989 1.218 0.83z">
            </path>
            <path fill="#fff" style="fill: var(--color1, #fff)"
                d="M18.911 13.525c0.468-0.16 0.682-0.79 0.477-1.408s-0.75-0.989-1.218-0.83c-0.468 0.16-0.682 0.79-0.477 1.408s0.75 0.989 1.218 0.83z">
            </path>
            <path fill="#000" style="fill: var(--color2, #000)"
                d="M7.543 10.918c0.207-0.755 0.574-1.532 1.321-1.86 0.696-0.305 1.476-0.114 2.145 0.174 0.458 0.198 0.806-0.506 0.345-0.704-0.891-0.385-1.912-0.598-2.831-0.179-0.967 0.441-1.468 1.419-1.739 2.409-0.134 0.49 0.625 0.646 0.759 0.16z">
            </path>
            <path fill="#000" style="fill: var(--color2, #000)"
                d="M16.456 7.099c1.943 0.221 3.943-0.050 5.753-0.807 0.459-0.191 0.215-0.939-0.247-0.746-1.68 0.702-3.54 0.988-5.349 0.782-0.493-0.057-0.654 0.713-0.158 0.77z">
            </path>
            <path fill="none" stroke="#000" style="stroke: var(--color2, #000)" stroke-linejoin="miter"
                stroke-linecap="butt" stroke-miterlimit="10" stroke-width="0.8312"
                d="M19.259 25.719c-6.323 2.157-12.479 0.789-13.752-3.055"></path>
            <path fill="none" stroke="#000" style="stroke: var(--color2, #000)" stroke-linejoin="miter"
                stroke-linecap="butt" stroke-miterlimit="10" stroke-width="0.8312"
                d="M28.402 14.853c1.273 3.845-2.821 8.71-9.144 10.867"></path>
            <path fill="none" stroke="#000" style="stroke: var(--color2, #000)" stroke-linejoin="miter"
                stroke-linecap="butt" stroke-miterlimit="10" stroke-width="0.8312" d="M4.262 23.434l2.406-1.789"></path>
            <path fill="none" stroke="#000" style="stroke: var(--color2, #000)" stroke-linejoin="miter"
                stroke-linecap="butt" stroke-miterlimit="10" stroke-width="0.8312" d="M27.36 15l2.042-0.419"></path>
        </symbol>
        <symbol id="green" viewBox="0 0 33 32">
            <path fill="#fff" style="fill: var(--color1, #fff)"
                d="M11.929 16.413c1.182 0.693 3.044-0.335 4.159-2.296s1.060-4.112-0.122-4.805c-1.182-0.693-3.044 0.335-4.159 2.296s-1.060 4.112 0.122 4.805z">
            </path>
            <path fill="#000" style="fill: var(--color2, #000)"
                d="M15.876 9.471c1.076 0.63 1.101 2.715 0.056 4.554s-2.837 2.859-3.912 2.229c-1.076-0.63-1.101-2.715-0.056-4.554s2.838-2.859 3.912-2.229zM16.057 9.153c-1.269-0.743-3.241 0.315-4.406 2.364s-1.081 4.312 0.188 5.056c1.269 0.743 3.241-0.315 4.406-2.364s1.082-4.312-0.188-5.056z">
            </path>
            <path fill="#fff" style="fill: var(--color1, #fff)"
                d="M19.131 20.636c1.182 0.693 3.044-0.335 4.159-2.296s1.060-4.112-0.122-4.805c-1.182-0.693-3.044 0.335-4.159 2.296s-1.060 4.112 0.122 4.805z">
            </path>
            <path fill="#000" style="fill: var(--color2, #000)"
                d="M23.078 13.693c1.076 0.63 1.101 2.715 0.056 4.554s-2.837 2.859-3.912 2.229c-1.076-0.63-1.101-2.715-0.056-4.554s2.838-2.859 3.912-2.229zM23.259 13.375c-1.269-0.743-3.241 0.315-4.406 2.364s-1.081 4.312 0.188 5.056c1.269 0.743 3.241-0.315 4.406-2.364s1.082-4.312-0.188-5.056z">
            </path>
            <path fill="#000" style="fill: var(--color2, #000)"
                d="M12.952 14.611c0.663 0.389 1.7-0.174 2.316-1.257s0.577-2.276-0.086-2.665c-0.663-0.389-1.7 0.174-2.316 1.257s-0.577 2.276 0.086 2.665z">
            </path>
            <path fill="#000" style="fill: var(--color2, #000)"
                d="M15.152 10.743c0.634 0.371 0.662 1.528 0.064 2.581s-1.599 1.606-2.233 1.235c-0.634-0.371-0.662-1.528-0.064-2.581s1.601-1.605 2.233-1.235zM15.212 10.637c-0.692-0.406-1.766 0.168-2.398 1.28s-0.584 2.342 0.108 2.748c0.692 0.406 1.766-0.168 2.398-1.28s0.584-2.342-0.108-2.748z">
            </path>
            <path fill="#000" style="fill: var(--color2, #000)"
                d="M20.157 18.834c0.663 0.389 1.7-0.174 2.316-1.257s0.577-2.276-0.086-2.665c-0.663-0.389-1.7 0.174-2.316 1.257s-0.577 2.276 0.086 2.665z">
            </path>
            <path fill="#000" style="fill: var(--color2, #000)"
                d="M22.356 14.965c0.634 0.371 0.662 1.528 0.064 2.581s-1.599 1.606-2.233 1.235-0.662-1.529-0.064-2.581c0.598-1.052 1.601-1.606 2.233-1.235zM22.416 14.859c-0.692-0.406-1.766 0.168-2.398 1.28s-0.584 2.342 0.108 2.748c0.692 0.406 1.766-0.168 2.398-1.279s0.584-2.342-0.108-2.748z">
            </path>
            <path fill="#fff" style="fill: var(--color1, #fff)"
                d="M14.372 13.112c0.399 0.234 0.965-0.004 1.265-0.53s0.219-1.143-0.18-1.377c-0.399-0.234-0.965 0.004-1.265 0.53s-0.219 1.143 0.18 1.377z">
            </path>
            <path fill="#fff" style="fill: var(--color1, #fff)"
                d="M21.576 17.334c0.399 0.234 0.965-0.004 1.265-0.53s0.219-1.143-0.18-1.377c-0.399-0.234-0.965 0.004-1.265 0.53s-0.219 1.143 0.18 1.377z">
            </path>
            <path fill="#000" style="fill: var(--color2, #000)"
                d="M14.965 6.548c1.329 0.096 2.537 0.807 3.286 1.925 0.261 0.389 0.89 0.028 0.628-0.363-0.904-1.35-2.313-2.18-3.919-2.296-0.463-0.034-0.458 0.7 0.004 0.734z">
            </path>
            <path fill="#000" style="fill: var(--color2, #000)"
                d="M22.481 10.954c1.329 0.097 2.537 0.807 3.286 1.925 0.261 0.389 0.89 0.028 0.628-0.363-0.904-1.35-2.313-2.18-3.919-2.296-0.463-0.034-0.458 0.7 0.004 0.734z">
            </path>
            <path fill="none" stroke="#000" style="stroke: var(--color2, #000)" stroke-linejoin="miter"
                stroke-linecap="butt" stroke-miterlimit="10" stroke-width="0.6607"
                d="M12.899 23.272c-5.391-3.16-8.25-8.379-6.386-11.657"></path>
            <path fill="none" stroke="#000" style="stroke: var(--color2, #000)" stroke-linejoin="miter"
                stroke-linecap="butt" stroke-miterlimit="10" stroke-width="0.6607"
                d="M26.037 23.058c-1.864 3.278-7.746 3.374-13.137 0.214"></path>
            <path fill="none" stroke="#000" style="stroke: var(--color2, #000)" stroke-linejoin="miter"
                stroke-linecap="butt" stroke-miterlimit="10" stroke-width="0.6607" d="M5.215 11.206l2.719 0.604"></path>
            <path fill="none" stroke="#000" style="stroke: var(--color2, #000)" stroke-linejoin="miter"
                stroke-linecap="butt" stroke-miterlimit="10" stroke-width="0.6607" d="M25.291 22.409l1.55 1.191"></path>
        </symbol>
        <symbol id="pink" viewBox="0 0 32 32">
            <path fill="#fff" style="fill: var(--color1, #fff)"
                d="M11.812 15.692c1.095 0.78 3.001-0.060 4.257-1.877s1.386-3.922 0.291-4.702c-1.095-0.78-3.001 0.060-4.257 1.877s-1.386 3.922-0.291 4.702z">
            </path>
            <path fill="#000" style="fill: var(--color2, #000)"
                d="M16.257 9.26c0.996 0.71 0.844 2.748-0.334 4.452s-3.014 2.543-4.010 1.833c-0.996-0.71-0.844-2.748 0.334-4.452s3.015-2.542 4.010-1.833zM16.461 8.965c-1.175-0.837-3.192 0.022-4.504 1.921s-1.423 4.116-0.247 4.953c1.175 0.837 3.192-0.022 4.504-1.921s1.424-4.115 0.247-4.953z">
            </path>
            <path fill="#fff" style="fill: var(--color1, #fff)"
                d="M18.486 20.447c1.095 0.78 3.001-0.060 4.257-1.877s1.386-3.922 0.291-4.702c-1.095-0.78-3.001 0.060-4.257 1.877s-1.386 3.922-0.291 4.702z">
            </path>
            <path fill="#000" style="fill: var(--color2, #000)"
                d="M22.931 14.015c0.996 0.71 0.844 2.748-0.334 4.452s-3.014 2.543-4.010 1.833c-0.996-0.71-0.844-2.748 0.334-4.452s3.015-2.542 4.010-1.833zM23.135 13.721c-1.175-0.837-3.192 0.023-4.504 1.921s-1.423 4.116-0.247 4.953 3.192-0.022 4.504-1.921c1.312-1.898 1.424-4.115 0.247-4.953z">
            </path>
            <path fill="#000" style="fill: var(--color2, #000)"
                d="M14.032 13.316c0.614 0.438 1.675-0.021 2.368-1.024s0.758-2.171 0.143-2.609c-0.614-0.438-1.675 0.021-2.368 1.024s-0.758 2.171-0.143 2.609z">
            </path>
            <path fill="#000" style="fill: var(--color2, #000)"
                d="M16.509 9.732c0.587 0.418 0.516 1.551-0.158 2.526s-1.699 1.428-2.286 1.009c-0.587-0.418-0.516-1.551 0.158-2.526s1.7-1.427 2.286-1.009zM16.577 9.634c-0.641-0.457-1.738 0.009-2.45 1.039s-0.77 2.236-0.129 2.693 1.738-0.009 2.45-1.039c0.712-1.030 0.77-2.236 0.129-2.693z">
            </path>
            <path fill="#000" style="fill: var(--color2, #000)"
                d="M20.802 18.141c0.614 0.438 1.675-0.021 2.368-1.024s0.758-2.171 0.143-2.609c-0.614-0.438-1.675 0.021-2.368 1.024s-0.758 2.171-0.143 2.609z">
            </path>
            <path fill="#000" style="fill: var(--color2, #000)"
                d="M23.28 14.556c0.587 0.418 0.516 1.551-0.158 2.526s-1.699 1.428-2.286 1.009-0.516-1.551 0.158-2.526c0.674-0.975 1.7-1.427 2.286-1.009zM23.348 14.458c-0.641-0.457-1.738 0.009-2.45 1.039s-0.77 2.236-0.129 2.693c0.641 0.457 1.738-0.009 2.45-1.039s0.77-2.236 0.129-2.693z">
            </path>
            <path fill="#fff" style="fill: var(--color1, #fff)"
                d="M13.702 12.861c0.287 0.205 0.733 0.063 0.996-0.317s0.242-0.853-0.045-1.058c-0.287-0.205-0.733-0.063-0.996 0.317s-0.242 0.853 0.045 1.058z">
            </path>
            <path fill="#fff" style="fill: var(--color1, #fff)"
                d="M20.501 17.853c0.287 0.205 0.733 0.063 0.996-0.317s0.242-0.853-0.045-1.058c-0.287-0.205-0.733-0.063-0.996 0.317s-0.242 0.853 0.045 1.058z">
            </path>
            <path fill="#000" style="fill: var(--color2, #000)"
                d="M15.386 6.322c1.353 0.050 2.557 0.705 3.356 1.814 0.27 0.374 0.816-0.086 0.548-0.458-0.904-1.253-2.315-2.016-3.844-2.072-0.455-0.016-0.518 0.701-0.059 0.717z">
            </path>
            <path fill="#000" style="fill: var(--color2, #000)"
                d="M23.254 11.196c1.276 0.466 2.219 1.47 2.648 2.769 0.145 0.439 0.788 0.135 0.645-0.3-0.487-1.475-1.615-2.622-3.055-3.148-0.429-0.156-0.669 0.521-0.238 0.679z">
            </path>
            <path fill="none" stroke="#000" style="stroke: var(--color2, #000)" stroke-linejoin="miter"
                stroke-linecap="butt" stroke-miterlimit="10" stroke-width="0.6209"
                d="M11.914 22.434c-4.995-3.559-7.341-8.906-5.242-11.943"></path>
            <path fill="none" stroke="#000" style="stroke: var(--color2, #000)" stroke-linejoin="miter"
                stroke-linecap="butt" stroke-miterlimit="10" stroke-width="0.6209"
                d="M24.759 23.379c-2.1 3.037-7.85 2.614-12.845-0.945"></path>
            <path fill="none" stroke="#000" style="stroke: var(--color2, #000)" stroke-linejoin="miter"
                stroke-linecap="butt" stroke-miterlimit="10" stroke-width="0.6209" d="M5.439 9.978l2.603 0.829"></path>
            <path fill="none" stroke="#000" style="stroke: var(--color2, #000)" stroke-linejoin="miter"
                stroke-linecap="butt" stroke-miterlimit="10" stroke-width="0.6209" d="M24.086 22.681l1.412 1.299">
            </path>
            <path fill="none" stroke="#000" style="stroke: var(--color2, #000)" stroke-linejoin="miter"
                stroke-linecap="butt" stroke-miterlimit="10" stroke-width="0.4139"
                d="M14.343 6.949c-0.098 0.159-0.32 0.563-0.321 1.127-0.001 0.492 0.166 0.856 0.256 1.021"></path>
            <path fill="none" stroke="#000" style="stroke: var(--color2, #000)" stroke-linejoin="miter"
                stroke-linecap="butt" stroke-miterlimit="10" stroke-width="0.4139"
                d="M14.73 7.292c-0.045 0.119-0.146 0.424-0.146 0.848-0.001 0.37 0.076 0.645 0.116 0.768"></path>
            <path fill="none" stroke="#000" style="stroke: var(--color2, #000)" stroke-linejoin="miter"
                stroke-linecap="butt" stroke-miterlimit="10" stroke-width="0.4139"
                d="M15.331 7.775c-0.048 0.082-0.156 0.292-0.156 0.585-0 0.255 0.081 0.445 0.124 0.53"></path>
            <path fill="none" stroke="#000" style="stroke: var(--color2, #000)" stroke-linejoin="miter"
                stroke-linecap="butt" stroke-miterlimit="10" stroke-width="0.4139"
                d="M25.816 14.977c-0.114 0.148-0.413 0.497-0.935 0.69-0.455 0.168-0.849 0.132-1.032 0.103"></path>
            <path fill="none" stroke="#000" style="stroke: var(--color2, #000)" stroke-linejoin="miter"
                stroke-linecap="butt" stroke-miterlimit="10" stroke-width="0.4139"
                d="M25.368 14.725c-0.095 0.083-0.343 0.283-0.736 0.428-0.343 0.126-0.623 0.147-0.751 0.151"></path>
            <path fill="none" stroke="#000" style="stroke: var(--color2, #000)" stroke-linejoin="miter"
                stroke-linecap="butt" stroke-miterlimit="10" stroke-width="0.4139"
                d="M24.715 14.316c-0.059 0.073-0.218 0.248-0.489 0.348-0.236 0.087-0.439 0.074-0.533 0.061"></path>
            <path fill="#000" style="fill: var(--color2, #000); stroke: var(--color2, #000)" stroke="#000"
                stroke-linejoin="miter" stroke-linecap="butt" stroke-miterlimit="10" stroke-width="0.6209"
                d="M12.069 22.827c0.433-0.352 0.321-1.224-0.25-1.948s-1.385-1.026-1.818-0.674c-0.433 0.352-0.321 1.224 0.25 1.948s1.385 1.026 1.818 0.674z">
            </path>
            <path fill="#000" style="fill: var(--color2, #000); stroke: var(--color2, #000)" stroke="#000"
                stroke-linejoin="miter" stroke-linecap="butt" stroke-miterlimit="10" stroke-width="0.6209"
                d="M11.599 23.308c0.881 0.628 1.672 1.027 1.766 0.892s-0.545-0.755-1.426-1.383c-0.881-0.628-1.672-1.027-1.766-0.892s0.545 0.755 1.426 1.383z">
            </path>
            <path fill="#000" style="fill: var(--color2, #000); stroke: var(--color2, #000)" stroke="#000"
                stroke-linejoin="miter" stroke-linecap="butt" stroke-miterlimit="10" stroke-width="0.6209"
                d="M13.038 24.165c0.832 0.384 1.692 0.279 1.922-0.234s-0.259-1.239-1.091-1.623c-0.832-0.384-1.692-0.279-1.922 0.234s0.259 1.239 1.091 1.623z">
            </path>
        </symbol>

        <symbol id="arrow-icon" viewBox="0 0 82 32">
            <path
                d="M81.414 17.414c0.781-0.781 0.781-2.047 0-2.828l-12.728-12.728c-0.781-0.781-2.047-0.781-2.828 0s-0.781 2.047 0 2.828l11.314 11.314-11.314 11.314c-0.781 0.781-0.781 2.047 0 2.828s2.047 0.781 2.828 0l12.728-12.728zM0 18h80v-4h-80v4z">
            </path>
        </symbol>


                          <!-- Удалю перед сдачей=== -->

       <symbol id="Arrow-focus1" viewBox="0 0 69 32">
            <path fill="#fcfcfc" style="fill: var(--color1, #fcfcfc)" d="M68.080 17.413c0.361-0.362 0.585-0.861 0.585-1.413s-0.224-1.052-0.585-1.413l-12.727-12.729c-0.362-0.362-0.862-0.586-1.415-0.586-1.105 0-2.001 0.896-2.001 2.001 0 0.552 0.224 1.053 0.586 1.415l11.316 11.313-11.315 11.313c-0.362 0.362-0.586 0.862-0.586 1.415 0 1.105 0.896 2.001 2.001 2.001 0.552 0 1.053-0.224 1.415-0.586l12.728-12.728zM0 18h66.667v-4h-66.667v4z"></path>
       </symbol>
       <symbol id="Arrow-hover1" viewBox="0 0 102 32">
              <path fill="#fcfcfc" style="fill: var(--color1, #fcfcfc)" d="M101.414 17.414c0.362-0.362 0.586-0.862 0.586-1.414s-0.224-1.052-0.586-1.414l-12.728-12.728c-0.364-0.377-0.874-0.611-1.439-0.611-1.105 0-2 0.895-2 2 0 0.565 0.234 1.074 0.61 1.438l0.001 0.001 11.314 11.314-11.314 11.314c-0.347 0.359-0.561 0.849-0.561 1.389 0 1.105 0.895 2 2 2 0.54 0 1.030-0.214 1.39-0.562l-0.001 0.001 12.728-12.728zM0 18h100v-4h-100v4z"></path>
        </symbol>
        <symbol id="Arrow-default1" viewBox="0 0 82 32">
                <path fill="#fcfcfc" style="fill: var(--color1, #fcfcfc)" d="M81.414 17.414c0.362-0.362 0.586-0.862 0.586-1.414s-0.224-1.052-0.586-1.414l-12.728-12.728c-0.364-0.377-0.874-0.611-1.439-0.611-1.105 0-2 0.895-2 2 0 0.565 0.234 1.074 0.61 1.438l0.001 0.001 11.314 11.314-11.314 11.314c-0.347 0.359-0.561 0.849-0.561 1.389 0 1.105 0.895 2 2 2 0.54 0 1.030-0.214 1.39-0.562l-0.001 0.001 12.728-12.728zM0 18h80v-4h-80v4z"></path>
        </symbol>
                              <!-- Конец удаления=== -->


        <symbol id="arrow_up_circle_icon_183819" viewBox="0 0 32 32">
                <path d="M16 2.667c7.352 0 13.333 5.981 13.333 13.333s-5.981 13.333-13.333 13.333c-7.352 0-13.333-5.981-13.333-13.333s5.981-13.333 13.333-13.333zM16 4.667c-6.249 0-11.333 5.084-11.333 11.333s5.084 11.333 11.333 11.333c6.249 0 11.333-5.084 11.333-11.333s-5.084-11.333-11.333-11.333zM16.709 12.569l4.628 4.649c0.389 0.392 0.388 1.024-0.003 1.413-0.195 0.195-0.451 0.292-0.705 0.292-0.256 0-0.513-0.097-0.708-0.295l-3.921-3.937-3.919 3.937c-0.389 0.392-1.023 0.392-1.415 0.003-0.391-0.389-0.393-1.021-0.003-1.413l4.628-4.649c0.375-0.377 1.041-0.377 1.417 0z"></path>
        </symbol>

        <symbol id="Arrow-default" viewBox="0 0 82 32">
                <path d="M81.414 17.414c0.362-0.362 0.586-0.862 0.586-1.414s-0.224-1.052-0.586-1.414l-12.728-12.728c-0.364-0.377-0.874-0.611-1.439-0.611-1.105 0-2 0.895-2 2 0 0.565 0.234 1.074 0.61 1.438l0.001 0.001 11.314 11.314-11.314 11.314c-0.347 0.359-0.561 0.849-0.561 1.389 0 1.105 0.895 2 2 2 0.54 0 1.030-0.214 1.39-0.562l-0.001 0.001 12.728-12.728zM0 18h80v-4h-80v4z"></path>
        </symbol>

        <symbol id="Arrow-focus" viewBox="0 0 69 32">
                <path d="M68.080 17.413c0.361-0.362 0.585-0.861 0.585-1.413s-0.224-1.052-0.585-1.413l-12.727-12.729c-0.362-0.362-0.862-0.586-1.415-0.586-1.105 0-2.001 0.896-2.001 2.001 0 0.552 0.224 1.053 0.586 1.415l11.316 11.313-11.315 11.313c-0.362 0.362-0.586 0.862-0.586 1.415 0 1.105 0.896 2.001 2.001 2.001 0.552 0 1.053-0.224 1.415-0.586l12.728-12.728zM0 18h66.667v-4h-66.667v4z"></path>
        </symbol>

        <symbol id="Arrow-hover" viewBox="0 0 102 32">
                <path d="M101.414 17.414c0.362-0.362 0.586-0.862 0.586-1.414s-0.224-1.052-0.586-1.414l-12.728-12.728c-0.364-0.377-0.874-0.611-1.439-0.611-1.105 0-2 0.895-2 2 0 0.565 0.234 1.074 0.61 1.438l0.001 0.001 11.314 11.314-11.314 11.314c-0.347 0.359-0.561 0.849-0.561 1.389 0 1.105 0.895 2 2 2 0.54 0 1.030-0.214 1.39-0.562l-0.001 0.001 12.728-12.728zM0 18h100v-4h-100v4z"></path>
        </symbol>





</defs>
</svg>

